<svg viewBox="0 0 572 544" xmlns="http://www.w3.org/2000/svg">
  <path
    transform="translate(-418.31 -73.39)"
    d="M988.6 536.3c2.2 6.6 1.3 18-2 24.8a34 34 0 0 1-64.4-13l-.4-7.8-7.2-4-18.6-10.8c-7-4-12-6.3-12.6-5.8l-7.5 5.4c-11.8 8.5-148 87.2-155.4 89.8-5.5 1.9-9 2.4-16.5 2.4-15 0-12.8 1-71.5-33l-85.2-49.6a174 174 0 0 1-23.4-15.7c-.4 0-6.7 3.5-14 7.8l-18.6 10.7-5.3 2.8v6.3a34 34 0 0 1-34.3 33.7c-6.6 0-8.7-.5-14.1-3.2a34 34 0 0 1-7.5-56.4 35 35 0 0 1 41.2-2.1l3.8 2.5 18.7-11c11.9-6.8 18.6-11.3 18.4-12.2-2-8.2-2.2-21.5-2-102.5l.3-90.9 2.5-6.5c5.5-14 12.6-21.8 28.1-30.8l116.4-68a290 290 0 0 1 29.8-15.8l5.7-1.8v-41.4l-4.4-2.2c-6-2.9-12-8.8-15.3-15.2-2.5-4.7-2.8-6.4-2.8-14.8 0-8.2.4-10.3 2.6-15 3.3-7 9.9-13.6 16.9-16.9a38 38 0 0 1 27.4-.3 34 34 0 0 1 16.7 15.4c3.2 6 3.4 6.8 3.4 16.3 0 8.6-.3 10.7-2.5 15a39 39 0 0 1-15.8 16l-4.2 1.8v41.2l5.8 1.8a480 480 0 0 1 39.2 21.4l73 42.6a1147 1147 0 0 1 44.7 26.8 53 53 0 0 1 19.3 31.5c1.3 6.7.9 185.6-.4 191l-.8 3.1 18.5 10.7L933 521l4.5-2.8a32 32 0 0 1 21.3-5 33 33 0 0 1 30 23.1m-548 7.7c-1.3 3.8.1 8 4 11.5 3.1 3 10.5 3.4 14 1 9.4-6.6 5-21.5-6.2-21.5-6.2 0-9.8 2.8-11.8 9m92.5-233.3c-.4 2.6-.6 43.4-.6 90.8.2 95.9-.1 92 6.9 100.2 4.3 5 8.6 7.8 47.5 30.3 38.4 22.3 62.1 36.2 84.4 49.3a379 379 0 0 0 21.2 11.9c6 2.6 16.8 2.6 22.6 0 2.4-1 28.8-16.2 58.8-33.7l66-38.4c17.6-10.2 23-13.5 23-14.1 0-.7-3.7-3-31.5-19-22.4-13-27.2-16.8-30.8-24-2.2-4.5-2.2-4.8-2.7-66.7l-.5-62.3-2.7-2.7c-3.4-3.3-9.5-3.8-12.6-1-1.1 1-6 8.6-10.8 17l-19 32.7-19.9 34.5a226 226 0 0 1-12.3 19.8c-7 7.5-20 9-28.4 3.1-5.2-3.6-8.6-9-49.7-80.9a313 313 0 0 0-15.7-25.5 8 8 0 0 0-6.4-2.5q-7.5 0-9 8.6c-.5 2.4-1 36.3-1 75.2 0 46.6-.4 71.5-1 72.8-1.5 2.6-6.2 4.9-10.4 4.9q-3.5 0-6.8-3l-3.3-2.8-.3-75.3c-.2-65.5 0-76 1.3-80.6 2.2-7.4 8.7-15 16-18.8 5.2-2.6 6.9-3 14.4-3s9.4.4 14.2 2.8c3.1 1.5 7.4 4.6 9.6 7s9.7 14.3 16.8 26.7c15.3 26.8 40.1 69.6 42.2 72.8 1.6 2.6-1 6.8 45.2-73.1a316 316 0 0 1 16.4-26.2c2.1-2.5 6.3-5.6 9.5-7.2 4.9-2.4 7-2.8 14.2-2.8s9.3.4 14.2 2.8c6.5 3.2 12 9 15.2 15.6 2 4.5 2.1 6 2.6 66.6.3 34.1.8 62.5 1.2 63.1s5 3.5 10 6.4l26.1 15.2a110 110 0 0 0 17.8 9.2c.5-.3.9-36.3.9-86.9 0-84.8 0-86.4-2.1-93.1-3.4-11.1-6.2-13.3-55-41.5L747 223a570 570 0 0 0-33.4-18.6c-5-1.8-14.3-1.8-19.2 0-5.8 2-147.2 84.8-151.9 88.8a30 30 0 0 0-9.3 17.5m161-209.8c-2.6 4-2.8 7-.6 11.7 3.9 8.2 15.3 8.6 20.5.8 3.8-5.8 1-14.2-5.7-17-5-2.1-11-.2-14.1 4.5m251.1 440.6c-1.7 3.9-1.7 5.8 0 9.9q2.8 6.7 10.2 6.6a11.7 11.7 0 0 0 8.2-20c-2.4-2.4-3.8-3-7.4-3q-8.1.1-11 6.5"
    fill="#8b949e"
  />
</svg>
